<svg width="122" height="46" viewBox="0 0 122 46" fill="none" xmlns="http://www.w3.org/2000/svg">
<g clip-path="url(#clip0_1_136)">
<path d="M27.0235 33.5531L28.248 36.8573L29.173 36.3536L27.0682 33.5244L27.0235 33.5531Z" fill="#2D6AB3"/>
<path d="M40.4355 30.2519L41.7388 29.5446V23.9541L36.8197 27.1643L40.4355 30.2519Z" fill="#A2C089"/>
<path d="M29.173 36.3536L40.4354 30.2516L36.8197 27.1641L27.0682 33.5245L29.173 36.3536Z" fill="#657CBC"/>
<path d="M32.7677 23.7061L31.0308 22.2236C29.7047 25.399 28.2804 28.9364 26.7581 32.8356L26.9578 33.3733L32.7677 23.7061Z" fill="#EC2353"/>
<path d="M23.505 15.8006L20.4279 13.1724L19.6028 13.5195L20.4963 15.9441L20.5462 16.085L22.7482 22.0226L22.8612 22.3332L24.2276 26.0184L25.3418 29.0277L28.0378 22.328C28.3006 21.6546 28.5634 20.9891 28.8051 20.3288L25.3181 17.3482L23.505 15.8006Z" fill="#EC2353"/>
<path d="M26.9578 33.376L27.0235 33.5535L27.0682 33.5247L26.9578 33.376Z" fill="#EC2353"/>
<path d="M41.7388 31.3662V29.5444L40.4354 30.2517L41.7388 31.3662Z" fill="#91C9B8"/>
<path d="M23.505 15.8007L30.5814 15.1221C30.8127 14.3583 31.0282 13.6049 31.2279 12.8619C31.6642 11.3162 32.0151 9.74788 32.279 8.16406L20.4279 13.1725L23.505 15.8007Z" fill="#F37F94"/>
<path d="M36.6384 9.79004C35.8991 11.2603 35.1108 12.9193 34.2734 14.7672L38.3832 14.3705L36.6384 9.79004Z" fill="#F37F94"/>
<path d="M9.86708 5.55659C10.1036 6.1099 10.3374 6.68669 10.5661 7.28176L15.4273 8.90513L9.37044 3.73486H8.40869C8.6014 3.76772 8.78548 3.83872 8.95 3.94366C9.24606 4.16289 9.55175 4.70054 9.86708 5.55659Z" fill="#EC2353"/>
<path d="M10.5661 7.28174C10.8919 8.12214 11.2099 8.99907 11.5252 9.92038C11.9229 11.0879 12.3731 12.479 12.8759 14.0937L15.4221 8.91816L10.5661 7.28174Z" fill="#D64873"/>
<path d="M13.7141 16.7402L16.51 25.5905L18.8986 16.2417L13.7141 16.7402Z" fill="#D01E4E"/>
<path d="M10.9734 25.3451C10.2727 23.1423 9.57195 21.0413 8.87122 19.0421L8.5664 18.186L6.07269 19.23L10.9734 25.3451Z" fill="#D01E4E"/>
<path d="M19.0326 11.9822L20.4253 13.1697L32.2684 8.17434C32.354 7.63255 32.4058 7.08604 32.4235 6.53791C32.4235 6.48049 32.4235 6.42307 32.4235 6.37087C32.4197 5.95106 32.3828 5.53219 32.3131 5.11811C32.2842 4.93019 32.2474 4.73184 32.2028 4.52565L31.2515 3.74268H17.971L16.8332 6.05507L19.0326 11.9822Z" fill="#F37466"/>
<path d="M19.6028 13.5196L20.4279 13.1725L19.0352 11.985L15.4274 8.90527L12.8759 14.0938L13.4277 15.866L13.5039 16.1061L19.5871 13.5353L19.6028 13.5196Z" fill="#F06B7D"/>
<path d="M19.0326 11.9823L16.8332 6.04736L15.4274 8.90524L19.0326 11.9823Z" fill="#F0537F"/>
<path d="M8.98942 31.2094L11.9666 43.3821L14.0136 35.3696C13.3532 33.0781 12.6954 30.8683 12.0402 28.7404C11.6898 27.5816 11.3342 26.4506 10.9734 25.3475L6.05951 19.2402L8.98942 31.2094Z" fill="#503F7A"/>
<path d="M6.05954 19.2402L3.21109 27.4511L1.19299 33.2712L11.9667 43.3821L8.98682 31.2094L6.05954 19.2402Z" fill="#6E57A5"/>
<path d="M8.55324 18.186C8.28522 17.4309 8.02244 16.701 7.76493 15.9963L0.344232 14.0702L0 13.9814V15.3804L6.05953 19.2378L8.55324 18.186Z" fill="#7B1F2D"/>
<path d="M15.5956 41.0123C15.07 39.0809 14.5445 37.2001 14.0189 35.3696L11.9719 43.3821L15.5956 41.0123Z" fill="#89489B"/>
<path d="M22.8665 22.333L19.9471 25.5015L19.7368 25.7311L17.3666 28.3019L17.3877 28.3698L20.3938 37.8804L22.2805 36.6485L25.347 29.0275L24.2329 26.0182L22.8665 22.333Z" fill="#89489B"/>
<path d="M26.9578 33.3755L26.7581 32.8379C26.6924 33.0075 26.6267 33.1746 26.5584 33.3442C26.4691 33.5791 26.3797 33.8088 26.2957 34.0358L27.0288 33.5556L26.9578 33.3755Z" fill="#89489B"/>
<path d="M36.6384 9.78988L38.3779 14.3703L40.6246 14.1563L41.7388 14.0493V12.4494L37.206 8.68066C37.0194 9.03822 36.8302 9.39578 36.6384 9.78988Z" fill="#F0B656"/>
<path d="M19.5923 13.5246V13.522L13.5092 16.0928L13.7141 16.74L18.8986 16.2415L19.5923 13.5246Z" fill="#EC2353"/>
<path d="M19.9471 25.5016L22.8665 22.3331L22.7509 22.0225L20.5514 16.085L20.0154 16.1345L18.8986 16.2416L16.51 25.5903L17.3666 28.302L19.7369 25.7313L19.9471 25.5016Z" fill="#D64873"/>
<path d="M19.5923 13.5248L18.8986 16.2417L20.0154 16.1347L20.5515 16.0851L20.5015 15.9442L19.6029 13.5195L19.5923 13.5221V13.5248Z" fill="#F0537F"/>
<path d="M0 45.0525H2.00233L0 43.0977V45.0525Z" fill="#46315B"/>
<path d="M38.3779 14.3703L38.3753 14.3729L38.3779 14.3703L37.6579 15.5735L32.7677 23.7087L36.8197 27.1642L41.7388 23.954V14.0493L40.6246 14.1563L38.3779 14.3703Z" fill="#5EA687"/>
<path d="M26.9578 33.3757L27.0682 33.5244L36.8197 27.164L32.7677 23.7085L26.9578 33.3731V33.3757Z" fill="#A3509E"/>
<path d="M32.7677 23.7084L37.6579 15.5733L38.3779 14.3701L34.2682 14.7642C33.9266 15.5211 33.5718 16.3093 33.2171 17.1288C32.5164 18.7087 31.7894 20.406 31.0361 22.2208L32.773 23.7032L32.7677 23.7084Z" fill="#EF403A"/>
<path d="M25.3181 17.3483L28.8104 20.3289C28.9549 19.9452 29.0942 19.5642 29.2308 19.1883C29.7266 17.7964 30.1768 16.441 30.5815 15.1221L23.505 15.8007L25.3181 17.3483Z" fill="#EF403A"/>
<path d="M41.7388 4.17594V3.73486H40.1043C39.7837 4.1916 39.4474 4.70837 39.0953 5.30082L41.7388 4.17594Z" fill="#F37466"/>
<path d="M32.0162 3.73486H31.2542L32.2054 4.51784C32.1528 4.2699 32.0898 4.00108 32.0162 3.73486Z" fill="#F06B7D"/>
<path d="M16.8332 6.04726L15.9766 3.73486H15.6718H11.8222H9.37048L15.4274 8.90513L16.8332 6.04726Z" fill="#EF3F67"/>
<path d="M7.75704 15.9963C7.60113 15.5735 7.44697 15.1603 7.29456 14.7566C6.90741 13.7387 6.53077 12.7748 6.16464 11.8648C4.7264 8.30485 3.43006 5.59487 2.27561 3.73486H0V13.9814L0.344232 14.0702L7.75704 15.9963Z" fill="#CB2030"/>
<path d="M17.971 3.73486H15.9766L16.8332 6.04726L17.971 3.73486Z" fill="#F0537F"/>
<path d="M13.1229 45.0525H16.3497L14.4577 44.3296L13.1229 45.0525Z" fill="#1F498A"/>
<path d="M37.2059 8.68052L41.7388 12.4493V4.17578L39.0953 5.29283C38.8903 5.62951 38.6775 5.98968 38.462 6.36812C38.0626 7.06584 37.6439 7.83664 37.2059 8.68052Z" fill="#F6927C"/>
<path d="M9.4046 45.0527H12.1269L11.9666 43.3823L9.4046 45.0527Z" fill="#613E97"/>
<path d="M14.4525 44.3296L16.2341 43.3665C16.0213 42.5835 15.8058 41.8006 15.5929 41.0176L11.9641 43.3874L14.4525 44.3296Z" fill="#613E97"/>
<path d="M21.0061 39.8195L22.2805 36.6484L20.3938 37.8803L21.0061 39.8195Z" fill="#613E97"/>
<path d="M27.0235 33.5532L26.2904 34.0334C25.5897 35.8082 24.9564 37.4464 24.3906 38.9479L28.2481 36.86L27.0235 33.5532Z" fill="#613E97"/>
<path d="M11.9667 43.3823L12.127 45.0527H13.1229L14.4578 44.3297L11.9667 43.3823Z" fill="#46315B"/>
<path d="M0 38.8149V43.0978L2.00233 45.0527H2.00495H9.40463L11.9667 43.3823L0 38.8149Z" fill="#503F7A"/>
<path d="M0 15.3804V21.7982L6.05953 19.2405L0 15.3804Z" fill="#6D183C"/>
<path d="M3.21108 27.4511L6.05953 19.2402L0 21.798V23.4631V32.1542L1.19299 33.2712L3.21108 27.4511Z" fill="#5C3A71"/>
<path d="M1.19299 33.2713L0 32.1543V38.8148L11.9667 43.3822L1.19299 33.2713Z" fill="#613E97"/>
<path d="M40.4381 41.1688L41.7388 41.0618V31.3659L40.4354 30.2515L40.4381 41.1688Z" fill="#72C4B7"/>
<path d="M40.4354 41.1688H40.438L40.4354 30.2515L29.173 36.3535L40.4354 41.1688Z" fill="#6EA2B4"/>
<path d="M33.1986 41.7665L40.4354 41.1688L29.173 36.3535L33.1986 41.7665Z" fill="#019FC9"/>
<path d="M14.4525 44.3298L16.3471 45.0527H16.6861C16.5354 44.4855 16.3856 43.9235 16.2367 43.3667L14.4525 44.3298Z" fill="#6E57A5"/>
<path d="M24.3905 38.948C23.4551 41.3856 22.6746 43.4371 22.0256 45.0526H31.2778L28.2428 36.8574L24.3905 38.948Z" fill="#6E57A5"/>
<path d="M29.173 36.3535L28.248 36.8572L31.2831 45.0524H35.6425L33.1987 41.7665L29.173 36.3535Z" fill="#264080"/>
<path d="M40.4354 41.169L33.1987 41.7667L35.6425 45.0526H41.7388V41.062L40.4381 41.169H40.4354Z" fill="#0E8AB9"/>
<path d="M40.1043 3.73483L40.1884 3.61478H31.9847L32.0162 3.73483C32.0898 3.99583 32.1528 4.25682 32.2054 4.51781C32.2501 4.724 32.2868 4.92235 32.3158 5.11027C32.3854 5.52435 32.4223 5.94322 32.4261 6.36303C32.4261 6.41523 32.4261 6.47265 32.4261 6.53007C32.4084 7.07819 32.3566 7.62471 32.2711 8.16649C32.0072 9.75031 31.6563 11.3186 31.22 12.8644C31.0203 13.6056 30.8048 14.359 30.5736 15.1246C30.1707 16.4452 29.7204 17.8006 29.2229 19.1908C29.0863 19.5667 28.9601 19.9477 28.8025 20.3314C28.5581 20.9917 28.3006 21.6572 28.0352 22.3306L25.347 29.0277L22.2805 36.6486L21.006 39.8197L20.3938 37.8805L17.3876 28.37L17.3666 28.3021L16.51 25.5904L13.7141 16.7401L13.5091 16.0928L13.4329 15.8527L12.8758 14.0936C12.3731 12.4772 11.9229 11.0853 11.5252 9.91775C11.2099 8.99645 10.8919 8.11951 10.5661 7.27912C10.3375 6.68405 10.1036 6.10726 9.8671 5.55395C9.55177 4.6979 9.24696 4.16025 8.95265 3.94102C8.78813 3.83608 8.60404 3.76508 8.41134 3.73222C7.91312 3.64125 7.40685 3.60102 6.9004 3.61217H2.20203C2.22568 3.65131 2.24933 3.69307 2.2756 3.73222C3.43005 5.59397 4.72639 8.30482 6.16463 11.8648C6.53252 12.773 6.90916 13.737 7.29456 14.7566C7.44697 15.162 7.60112 15.5752 7.75704 15.9963C8.01981 16.701 8.28258 17.4309 8.54535 18.186L8.85805 19.0525C9.55878 21.05 10.2595 23.151 10.9602 25.3555C11.3106 26.4621 11.6662 27.5931 12.0271 28.7484C12.684 30.8746 13.3418 33.0844 14.0005 35.3776C14.5261 37.2063 15.0516 39.0872 15.5771 41.0203C15.79 41.8033 16.0055 42.5862 16.2183 43.3692C16.3672 43.9277 16.517 44.4897 16.6677 45.0552C16.6677 45.0865 16.686 45.1205 16.6939 45.1518H21.9914L22.0308 45.0552C22.6746 43.4397 23.4551 41.3883 24.3958 38.9506C24.9686 37.4525 25.6019 35.8143 26.2956 34.0361C26.385 33.809 26.4743 33.5794 26.5584 33.3445C26.6267 33.1748 26.6924 33.0078 26.7581 32.8382C28.2804 28.9407 29.7047 25.4033 31.0308 22.2262C31.7911 20.4114 32.5181 18.7141 33.2118 17.1342C33.5718 16.3147 33.9265 15.5265 34.2629 14.7696C35.1038 12.9218 35.8921 11.2627 36.6278 9.79248C36.8197 9.40882 37.0089 9.04082 37.1954 8.68326C37.6316 7.84112 38.0503 7.06945 38.4515 6.36825C38.667 5.98981 38.8798 5.62964 39.0848 5.29296C39.4474 4.6979 39.7837 4.19157 40.1043 3.73483Z" fill="white"/>
<path d="M64.8602 23.7685V24.421C64.8602 25.9069 63.9448 27.2937 62.1142 28.5812C60.2845 29.8672 58.0909 30.5426 55.8497 30.51C52.4809 30.51 49.7893 29.3364 47.7747 26.9892C45.7601 24.642 44.7528 21.484 44.7528 17.5151C44.7528 13.4732 45.8153 10.2647 47.9402 7.8897C50.0652 5.51467 52.904 4.32715 56.4567 4.32715C59.0564 4.32715 61.1708 5.02313 62.8 6.41509C63.5825 7.05075 64.2093 7.85468 64.6331 8.76618C65.0569 9.67768 65.2666 10.6729 65.2464 11.6767C65.2464 12.5458 64.7498 13.1278 63.7618 13.4149C62.7737 13.702 59.9253 13.8534 55.219 13.8534C53.8263 13.8534 52.7437 13.8534 51.9633 13.8247C51.1829 13.796 50.4576 13.7777 49.7796 13.7438C49.6315 14.2368 49.5261 14.7415 49.4643 15.2523C49.398 15.8075 49.3656 16.3662 49.3671 16.9253C49.3671 20.0415 50.1142 22.5018 51.6085 24.3062C53.1028 26.1105 55.1122 27.0127 57.6365 27.0127C58.9569 27.0232 60.2638 26.7498 61.4678 26.2114C62.7391 25.6128 63.889 24.7875 64.8602 23.7763M50.1107 12.1308H50.6048C50.6757 12.1308 51.1303 12.1491 51.9633 12.1856C52.7963 12.2222 53.6082 12.2405 54.3966 12.2405H55.1087C57.5998 12.2405 59.1343 12.1091 59.7124 11.8464C60.2905 11.5836 60.5778 11.0799 60.5743 10.3352C60.5769 9.78566 60.459 9.24216 60.2289 8.74236C59.9989 8.24257 59.6622 7.79845 59.2421 7.44079C58.3495 6.63333 57.1775 6.19948 55.9706 6.22979C55.2395 6.22114 54.5145 6.36275 53.8412 6.64571C53.1679 6.92867 52.5607 7.34687 52.0579 7.87404C50.9406 9.03087 50.257 10.5335 50.1213 12.1308" fill="white"/>
<path d="M85.401 30.1576H85.1383C85.0747 30.1661 85.0102 30.1513 84.9569 30.1159C84.9307 30.0898 84.9202 30.0141 84.9202 29.8862V29.6696L84.752 25.5902C83.9787 27.0586 82.8466 28.3105 81.4594 29.2311C80.2585 30.0103 78.8686 30.4544 77.4354 30.5169C76.0023 30.5793 74.5786 30.2578 73.3135 29.586C72.215 28.9844 71.3173 28.0773 70.7304 26.9761C70.2859 26.0397 69.9949 25.0388 69.8685 24.0112C69.6934 22.8524 69.6058 20.9498 69.6058 18.3033V17.2437C69.6058 14.1257 69.6329 11.0616 69.6872 8.05152C69.7056 7.52953 69.7161 7.21112 69.7161 7.1015C69.7459 6.62503 69.6556 6.1487 69.4534 5.71563C69.2445 5.3739 68.9316 5.107 68.5599 4.95353L72.2388 4.38196C72.3132 4.38156 72.3874 4.37192 72.4595 4.35325C72.504 4.33999 72.5498 4.33124 72.5961 4.32715C73.1217 4.32715 73.4344 4.44199 73.571 4.66905C73.7077 4.89611 73.7786 5.43115 73.7786 6.2846L73.6393 19.2011V19.5248C73.6393 22.246 74.0519 24.1904 74.877 25.358C75.7021 26.5255 77.0387 27.111 78.8869 27.1144C80.954 27.1144 82.4186 26.4028 83.2804 24.9795C84.1423 23.5562 84.5733 20.9228 84.5733 17.0793V10.6092C84.5733 8.75968 84.4857 7.41382 84.3105 6.57169C84.1371 5.72868 83.8507 5.18842 83.446 4.95353L88.9406 4.32715C88.8477 5.74173 88.7698 7.81314 88.7067 10.5414C88.6436 13.2696 88.6112 16.2467 88.6095 19.4726V22.6045C88.6095 25.1257 88.6971 26.8656 88.8722 27.8243C89.0474 28.7831 89.3671 29.4538 89.8314 29.8366L85.401 30.1576Z" fill="white"/>
<path d="M116.692 4.95898L99.1414 28.0438H106.063C109.672 28.0438 112.217 27.7828 113.699 27.2608C115.153 26.7676 116.412 25.8303 117.296 24.583L116.584 29.8316H93.1791L110.73 6.78593H105.372C102.297 6.78593 100.064 7.0391 98.6711 7.54542C97.336 8.00799 96.2075 8.92277 95.4836 10.1293L96.5584 4.95898H116.692Z" fill="white"/>
<path d="M116.282 42.9829L116.387 42.688C116.131 42.6141 115.866 42.5729 115.599 42.5653C114.968 42.5653 114.637 42.7454 114.637 43.3117C114.637 43.7633 114.96 43.912 115.546 43.9538C116.011 43.9929 116.143 44.1156 116.143 44.374C116.143 44.755 115.94 44.8203 115.546 44.8203C115.278 44.819 115.011 44.7722 114.758 44.682L114.663 44.9717C114.948 45.0547 115.242 45.0986 115.538 45.1022C116.182 45.1022 116.477 44.9168 116.477 44.3453C116.477 43.8964 116.214 43.698 115.578 43.6536C115.139 43.6249 114.971 43.5205 114.971 43.283C114.971 42.9072 115.178 42.8498 115.591 42.8498C115.827 42.854 116.061 42.899 116.282 42.9829ZM112.149 42.855C112.595 42.855 112.756 42.9829 112.785 43.5832H111.416C111.447 43.0168 111.639 42.855 112.149 42.855ZM112.149 42.5653C111.429 42.5653 111.058 42.8785 111.058 43.8207C111.058 44.8072 111.458 45.1022 112.191 45.1022C112.458 45.0902 112.723 45.0455 112.979 44.969L112.908 44.682C112.683 44.758 112.447 44.8011 112.209 44.8098C111.647 44.8098 111.397 44.6454 111.392 43.865H113.129C113.139 42.8393 112.837 42.5653 112.149 42.5653ZM108.449 44.8072C107.881 44.8072 107.695 44.648 107.695 43.8363C107.695 43.0246 107.881 42.8602 108.449 42.8602C108.809 42.8602 109.119 42.9777 109.119 43.1969V44.7054C108.903 44.7758 108.676 44.8102 108.449 44.8072ZM108.449 42.5653C107.695 42.5653 107.348 42.8602 107.348 43.8389C107.348 44.8177 107.7 45.1022 108.449 45.1022C108.785 45.0984 109.118 45.0339 109.432 44.9116V41.597H109.119V42.7584C108.924 42.6202 108.688 42.552 108.449 42.5653ZM104.678 42.8498C105.251 42.8498 105.437 43.0116 105.437 43.8311C105.437 44.6506 105.251 44.8151 104.678 44.8151C104.105 44.8151 103.924 44.6115 103.924 43.8311C103.924 43.0507 104.11 42.8498 104.678 42.8498ZM104.678 45.1022C105.437 45.1022 105.784 44.8072 105.784 43.8207C105.784 42.8341 105.432 42.5653 104.678 42.5653C103.924 42.5653 103.577 42.8263 103.577 43.8207C103.577 44.8151 103.924 45.1022 104.678 45.1022ZM102.142 44.682C101.956 44.7627 101.755 44.8053 101.551 44.8072C100.983 44.8072 100.723 44.6115 100.723 43.8311C100.723 43.0507 100.986 42.8602 101.551 42.8602C101.754 42.8555 101.955 42.8938 102.142 42.9724L102.242 42.6827C102.019 42.6097 101.786 42.5701 101.551 42.5653C100.8 42.5653 100.376 42.8263 100.376 43.8207C100.376 44.8151 100.794 45.1022 101.551 45.1022C101.788 45.0993 102.022 45.0543 102.242 44.969L102.142 44.682ZM95.9514 41.7171V45.0343H96.2982V41.7171H95.9514ZM91.6918 42.9829L91.7996 42.688C91.5431 42.6142 91.2782 42.573 91.0112 42.5653C90.3806 42.5653 90.0495 42.7454 90.0495 43.3117C90.0495 43.7633 90.3701 43.912 90.9587 43.9538C91.4238 43.9929 91.5552 44.1156 91.5552 44.374C91.5552 44.755 91.3528 44.8203 90.9587 44.8203C90.6899 44.819 90.4233 44.7722 90.1704 44.682L90.0758 44.9717C90.3601 45.0547 90.6545 45.0986 90.9508 45.1022C91.5946 45.1022 91.8863 44.9168 91.8863 44.3453C91.8863 43.8964 91.6235 43.698 90.9876 43.6536C90.5514 43.6249 90.3832 43.5205 90.3832 43.283C90.3832 42.9072 90.5882 42.8498 91.0034 42.8498C91.2389 42.8542 91.4718 42.8993 91.6918 42.9829ZM87.4454 44.8098C86.8778 44.8098 86.6913 44.6506 86.6913 43.8389C86.6913 43.0273 86.8778 42.8628 87.4454 42.8628C87.8054 42.8628 88.1129 42.9803 88.1129 43.1995V44.7081C87.8975 44.7778 87.6719 44.8113 87.4454 44.8072V44.8098ZM87.4454 42.5679C86.6913 42.5679 86.3444 42.8628 86.3444 43.8416C86.3444 44.8203 86.6939 45.1048 87.4454 45.1048C87.7811 45.1013 88.1133 45.0367 88.4256 44.9142V41.5996H88.1129V42.761C87.9201 42.6207 87.6841 42.5514 87.4454 42.5653V42.5679ZM84.794 42.5679C84.6698 42.5586 84.545 42.5749 84.4275 42.6158C84.3099 42.6566 84.2021 42.7212 84.1108 42.8054V42.6332H83.7981V45.0369H84.1108V43.21C84.1108 42.9907 84.4314 42.8915 84.794 42.8915C84.8775 42.8931 84.9609 42.8993 85.0437 42.9098V42.5914C84.9612 42.5772 84.8778 42.5685 84.794 42.5653V42.5679ZM81.0653 42.8524C81.6382 42.8524 81.8247 43.0142 81.8247 43.8337C81.8247 44.6532 81.6382 44.8177 81.0653 44.8177C80.4925 44.8177 80.3112 44.6141 80.3112 43.8337C80.3112 43.0534 80.4977 42.8498 81.0653 42.8498V42.8524ZM81.0653 45.1048C81.8247 45.1048 82.1716 44.8098 82.1716 43.8233C82.1716 42.8367 81.8195 42.5679 81.0653 42.5679C80.3111 42.5679 79.9643 42.8289 79.9643 43.8233C79.9643 44.8177 80.3111 45.1022 81.0653 45.1022V45.1048ZM78.569 42.6305H78.2274C78.0463 43.3476 77.8181 44.052 77.5442 44.7394C77.3996 44.1078 77.1658 43.1917 76.9687 42.6305H76.5693C76.3953 43.3437 76.1848 44.0475 75.9386 44.7394C75.7608 44.0247 75.5424 43.3206 75.2843 42.6305H74.9138C75.2212 43.4167 75.4843 44.2192 75.7021 45.0343H76.1462C76.3617 44.4392 76.6061 43.6458 76.7716 42.9881C76.924 43.4344 77.1684 44.374 77.2972 45.0343H77.7386C78.0694 44.2524 78.3468 43.4494 78.569 42.6305ZM70.6858 41.7171V45.0343H71.0327V41.7171H70.6858ZM66.4263 42.9829L66.5314 42.688C66.2749 42.6139 66.01 42.5726 65.743 42.5653C65.115 42.5653 64.7813 42.7454 64.7813 43.3117C64.7813 43.7633 65.1045 43.912 65.6905 43.9538C66.1582 43.9929 66.287 44.1156 66.287 44.374C66.287 44.755 66.0847 44.8203 65.6905 44.8203C65.4217 44.8196 65.155 44.7728 64.9022 44.682L64.8049 44.9717C65.0893 45.0543 65.3837 45.0982 65.68 45.1022C66.3238 45.1022 66.6181 44.9168 66.6181 44.3453C66.6181 43.8964 66.3553 43.698 65.7194 43.6536C65.2806 43.6249 65.1124 43.5205 65.1124 43.283C65.1124 42.9072 65.32 42.8498 65.7325 42.8498C65.9654 42.8552 66.1956 42.9002 66.4131 42.9829H66.4263ZM61.5387 42.9411C61.7365 42.883 61.9421 42.8557 62.1483 42.8602C62.6975 42.8602 62.8525 43.0064 62.8525 43.7398V45.0447H63.1626V43.6876C63.1626 42.8132 62.8998 42.5757 62.2061 42.5757C61.8704 42.5784 61.538 42.643 61.226 42.7663V45.0447H61.5387V42.9411ZM58.5562 42.8602C58.7827 42.8564 59.0082 42.8899 59.2237 42.9594V44.4627C59.2237 44.6872 58.9162 44.8072 58.5562 44.8072C57.9886 44.8072 57.8021 44.6115 57.8021 43.8311C57.8021 43.0507 57.9755 42.8602 58.5431 42.8602H58.5562ZM59.5364 42.7558C59.2243 42.6326 58.892 42.568 58.5562 42.5653C57.8047 42.5653 57.4552 42.8263 57.4552 43.8207C57.4552 44.8151 57.8021 45.1022 58.5562 45.1022C58.7956 45.1159 59.0322 45.0446 59.2237 44.9012C59.2237 45.5432 58.9031 45.705 58.3355 45.705C58.0979 45.6992 57.8632 45.6524 57.6418 45.5667L57.5498 45.8642C57.8043 45.9482 58.07 45.994 58.3381 46C59.0923 46 59.539 45.739 59.539 44.8594L59.5364 42.7558ZM55.6762 41.7119C55.5238 41.7119 55.4765 41.7353 55.4765 41.8972C55.4765 42.059 55.5238 42.1033 55.6762 42.1033C55.8286 42.1033 55.8733 42.0746 55.8733 41.8972C55.8733 41.7197 55.8129 41.7171 55.6631 41.7171L55.6762 41.7119ZM55.826 45.0291H55.5133V42.6253H55.826V45.0291ZM53.7081 42.9777L53.8158 42.6827C53.5593 42.609 53.2944 42.5678 53.0275 42.5601C52.3968 42.5601 52.0657 42.7402 52.0657 43.3065C52.0657 43.758 52.3863 43.9068 52.9749 43.9486C53.44 43.9877 53.5714 44.1104 53.5714 44.3688C53.5714 44.7498 53.3691 44.8151 52.9749 44.8151C52.7061 44.8142 52.4394 44.7674 52.1866 44.6767L52.092 44.9664C52.3763 45.0495 52.6707 45.0934 52.967 45.0969C53.6108 45.0969 53.9025 44.9116 53.9025 44.3401C53.9025 43.8911 53.6397 43.6928 53.0038 43.6484C52.5676 43.6197 52.3995 43.5153 52.3995 43.2778C52.3995 42.902 52.6044 42.8446 53.0196 42.8446C53.251 42.8522 53.4794 42.8989 53.6949 42.9829L53.7081 42.9777ZM49.5773 42.8498C50.024 42.8498 50.1817 42.9777 50.2106 43.578H48.8231C48.8757 43.0168 49.0544 42.855 49.5641 42.855L49.5773 42.8498ZM49.5773 42.5601C48.8547 42.5601 48.4841 42.8733 48.4841 43.8155C48.4841 44.802 48.8836 45.0969 49.6193 45.0969C49.8866 45.085 50.1514 45.0402 50.4076 44.9638L50.3367 44.6767C50.1112 44.7528 49.8757 44.7959 49.6377 44.8046C49.0754 44.8046 48.8258 44.6402 48.8205 43.8598H50.5574C50.5548 42.8393 50.25 42.5653 49.5641 42.5653L49.5773 42.5601ZM45.8774 44.802C45.3099 44.802 45.1233 44.6428 45.1233 43.8311C45.1233 43.0194 45.3099 42.855 45.8774 42.855C46.2374 42.855 46.5449 42.9725 46.5449 43.1917V44.7002C46.3258 44.7741 46.0956 44.8103 45.8643 44.8072L45.8774 44.802ZM45.8774 42.5601C45.1233 42.5601 44.7764 42.855 44.7764 43.8337C44.7764 44.8124 45.1259 45.0969 45.8774 45.0969C46.2131 45.0935 46.5453 45.0289 46.8576 44.9064V41.5918H46.5449V42.7532C46.3475 42.6127 46.1064 42.5461 45.8643 42.5653L45.8774 42.5601Z" fill="white"/>
<path d="M71.9813 35.0825L65.4829 40.5373H72.6697L71.9813 35.0851V35.0825Z" fill="#91CAB7"/>
<path d="M72.6697 40.5376H75.2291L71.9813 35.0854L72.6697 40.5376Z" fill="#68B6C0"/>
<path d="M73.2137 31.9849H70.1366L71.9813 35.0828L73.2137 31.9849Z" fill="#2E6BB2"/>
<path d="M75.6706 31.9849H73.2137L71.9813 35.0828L72.7486 34.4382L75.6706 31.9849Z" fill="#61A787"/>
<path d="M87.3876 31.9849L96.4165 40.5376H101.036L101.252 31.9849H87.3876Z" fill="#9CC38A"/>
<path d="M115.688 32.7544L106.16 40.5372H113.78C114.485 40.5442 115.164 40.2733 115.668 39.7841C116.172 39.2949 116.46 38.6271 116.469 37.9273V34.6101C116.469 34.2649 116.4 33.9231 116.266 33.6046C116.132 33.286 115.935 32.9971 115.688 32.7544Z" fill="#76C044"/>
<path d="M71.9812 35.0828L53.7369 33.2402L55.6762 40.5376H65.4671L71.9812 35.0828Z" fill="#74C3B6"/>
<path d="M52.1945 33.0835L44.7633 36.8783V37.9223C44.773 38.6224 45.0616 39.2901 45.5659 39.7793C46.0703 40.2685 46.7492 40.5392 47.4541 40.5322H55.6762L53.737 33.2244L52.1945 33.0835Z" fill="#6FA2B3"/>
<path d="M113.78 31.9849H101.254L101.036 40.5376H106.16L115.686 32.7548C115.177 32.2599 114.493 31.9834 113.78 31.9849Z" fill="#76C044"/>
<path d="M75.6732 31.9849L72.7486 34.4382L71.9813 35.0828L70.1366 31.9849H54.3466L52.1945 33.0836L53.737 33.2402L71.9813 35.0828V35.0855L75.2292 40.5376H96.4165L87.3876 31.9849H75.6732Z" fill="#118BBA"/>
<path d="M54.3466 31.9845H47.4541C47.1038 31.9814 46.7564 32.0468 46.4316 32.1771C46.1068 32.3074 45.811 32.4999 45.5612 32.7437C45.3113 32.9875 45.1122 33.2779 44.9753 33.5981C44.8384 33.9183 44.7664 34.2622 44.7633 34.6101V36.8781L52.1945 33.0833L54.3466 31.9845Z" fill="#03A0CA"/>
<path d="M112.254 33.9292C111.79 33.7979 111.31 33.7303 110.827 33.7282C109.537 33.7282 108.788 34.1406 108.788 35.2368C108.788 36.132 109.313 36.4608 110.446 36.5417C111.408 36.6252 111.634 36.9332 111.634 37.3586C111.634 37.9824 111.153 38.1573 110.32 38.1573C109.887 38.1559 109.457 38.0971 109.04 37.9824L108.864 38.5957C109.341 38.736 109.836 38.8072 110.333 38.8071C111.647 38.8071 112.388 38.4156 112.388 37.3247C112.388 36.4164 111.862 35.9962 110.714 35.8918C109.781 35.8135 109.55 35.5891 109.55 35.1637C109.55 34.5477 109.994 34.3807 110.819 34.3807C111.245 34.3759 111.669 34.4348 112.078 34.5556L112.254 33.9292ZM102.744 38.708V34.4512H104.426V33.843H100.316V34.4512H102.003V38.7158L102.744 38.708ZM93.0661 38.708V37.0089H94.7531C95.7359 37.0089 96.109 36.2625 96.109 35.4638C96.109 34.5686 95.7911 33.8352 94.7242 33.8352H92.3461V38.708H93.0661ZM93.0661 36.4008V34.4355H94.5981C95.0579 34.4355 95.297 34.8009 95.297 35.4586C95.297 36.0458 95.0579 36.4008 94.5692 36.4008H93.0661ZM84.0583 33.8352V38.708H87.5032V38.1051H84.7572V36.4347H86.7149V35.8344H84.7572V34.4512H87.5032V33.843L84.0583 33.8352ZM75.6285 36.2259C75.6285 38.2121 76.3643 38.8071 77.9094 38.8071C78.3796 38.8059 78.8477 38.7445 79.3021 38.6244L79.126 37.9876C78.7592 38.0953 78.3786 38.1498 77.9961 38.1494C76.8373 38.1494 76.4195 37.8702 76.4195 36.2337C76.4195 34.5973 76.8504 34.3676 77.9961 34.3676C78.3791 34.3663 78.76 34.4226 79.126 34.5347L79.3021 33.8979C78.8469 33.7822 78.3792 33.7217 77.9094 33.7178C76.3511 33.7178 75.6154 34.2345 75.6154 36.2259H75.6285ZM70.5991 33.8352H69.8764V37.6535C69.1643 36.3669 68.3813 35.0436 67.5824 33.8352H66.6286V38.708H67.3354V34.6887C68.1894 36.025 69.0014 37.3873 69.7214 38.708H70.5991V33.8352ZM59.2998 38.1703C58.1331 38.1703 57.7863 37.8336 57.7863 36.2546C57.7863 34.6182 58.1331 34.3468 59.2998 34.3468C60.4665 34.3468 60.8239 34.6078 60.8239 36.2546C60.8213 37.8441 60.4692 38.1703 59.2972 38.1703H59.2998ZM59.2998 33.7178C57.7521 33.7178 57.0111 34.2554 57.0111 36.2416C57.0111 38.2277 57.7521 38.8071 59.2998 38.8071C60.8476 38.8071 61.586 38.246 61.586 36.2416C61.586 34.2371 60.8423 33.7178 59.2972 33.7178H59.2998ZM48.8441 36.2259C48.8441 38.2121 49.5773 38.8071 51.125 38.8071C51.5943 38.8057 52.0615 38.7443 52.5151 38.6244L52.339 37.9876C51.9722 38.0953 51.5916 38.1498 51.2091 38.1494C50.0502 38.1494 49.6193 37.8702 49.6193 36.2337C49.6193 34.5973 50.0502 34.3676 51.2091 34.3676C51.592 34.3663 51.973 34.4226 52.339 34.5347L52.5151 33.8979C52.0608 33.782 51.594 33.7216 51.125 33.7178C49.5746 33.7178 48.8415 34.2345 48.8415 36.2259H48.8441Z" fill="#F3F4F4"/>
<path d="M121.842 2.33067H122C122.004 2.796 121.868 3.25193 121.61 3.64061C121.353 4.02928 120.985 4.33319 120.553 4.51378C120.121 4.69437 119.645 4.7435 119.185 4.65494C118.725 4.56638 118.302 4.34412 117.969 4.01636C117.637 3.68859 117.41 3.27009 117.317 2.81395C117.224 2.35781 117.27 1.88459 117.448 1.45431C117.627 1.02403 117.93 0.656093 118.319 0.397171C118.709 0.13825 119.166 1.40767e-05 119.635 1.07605e-09C120.259 -1.8747e-05 120.858 0.244948 121.301 0.681516C121.744 1.11808 121.995 1.71086 122 2.33067H121.685C121.686 1.92936 121.567 1.53677 121.343 1.2026C121.119 0.868424 120.801 0.607689 120.428 0.4534C120.055 0.299111 119.644 0.258206 119.248 0.335863C118.851 0.41352 118.487 0.606248 118.201 0.889648C117.915 1.17305 117.72 1.53438 117.641 1.9279C117.562 2.32142 117.602 2.72943 117.756 3.10029C117.91 3.47114 118.172 3.78817 118.508 4.01123C118.844 4.23429 119.239 4.35336 119.643 4.35336C120.183 4.35336 120.702 4.14043 121.085 3.76125C121.468 3.38207 121.683 2.8676 121.685 2.33067H121.842Z" fill="white"/>
<path d="M120.613 3.45277H120.224C119.885 2.82377 119.643 2.52885 119.493 2.52885H119.141V3.45277H118.831V1.18213H119.869C120.334 1.18213 120.468 1.48488 120.468 1.84244C120.479 1.9231 120.471 2.00508 120.445 2.08234C120.42 2.15959 120.377 2.23014 120.32 2.28877C120.263 2.3474 120.194 2.39261 120.117 2.42107C120.04 2.44952 119.958 2.46049 119.877 2.45316C120.037 2.50797 120.271 2.83421 120.613 3.45277ZM119.141 2.24698H119.824C120.029 2.24698 120.14 2.10604 120.14 1.86593C120.14 1.62582 120.021 1.46139 119.824 1.46139H119.146L119.141 2.24698Z" fill="white"/>
</g>
<defs>
<clipPath id="clip0_1_136">
<rect width="122" height="46" fill="white"/>
</clipPath>
</defs>
</svg>
